<svg width="32" height="32" viewBox="0 0 32 32" fill="none" xmlns="http://www.w3.org/2000/svg">
<path d="M25.3333 4H10.6667C8.46133 4 6.66667 5.79467 6.66667 8V9.33333H5.33333C4.97971 9.33333 4.64057 9.47381 4.39052 9.72386C4.14048 9.97391 4 10.313 4 10.6667C4 11.0203 4.14048 11.3594 4.39052 11.6095C4.64057 11.8595 4.97971 12 5.33333 12H6.66667V14.6667H5.33333C4.97971 14.6667 4.64057 14.8071 4.39052 15.0572C4.14048 15.3072 4 15.6464 4 16C4 16.3536 4.14048 16.6928 4.39052 16.9428C4.64057 17.1929 4.97971 17.3333 5.33333 17.3333H6.66667V20H5.33333C4.97971 20 4.64057 20.1405 4.39052 20.3905C4.14048 20.6406 4 20.9797 4 21.3333C4 21.687 4.14048 22.0261 4.39052 22.2761C4.64057 22.5262 4.97971 22.6667 5.33333 22.6667H6.66667V24C6.66667 26.2053 8.46133 28 10.6667 28H25.3333C27.5387 28 29.3333 26.2053 29.3333 24V8C29.3333 5.79467 27.5387 4 25.3333 4ZM9.33333 8C9.33333 7.26533 9.932 6.66667 10.6667 6.66667V9.33333H9.33333V8ZM9.33333 12H10.6667V14.6667H9.33333V12ZM9.33333 17.3333H10.6667V20H9.33333V17.3333ZM9.33333 24V22.6667H10.6667V25.3333C9.932 25.3333 9.33333 24.7347 9.33333 24ZM26.6667 24C26.6667 24.7347 26.068 25.3333 25.3333 25.3333H12V6.66667H25.3333C26.068 6.66667 26.6667 7.26533 26.6667 8V24Z" fill="#333333"/>
<path d="M18.6667 16.6667C20.1394 16.6667 21.3333 15.4728 21.3333 14C21.3333 12.5272 20.1394 11.3333 18.6667 11.3333C17.1939 11.3333 16 12.5272 16 14C16 15.4728 17.1939 16.6667 18.6667 16.6667Z" fill="#333333"/>
<path d="M18.6668 17.808C16.5842 17.808 15.3335 18.7613 15.3335 19.7133C15.3335 20.1893 16.5842 20.6667 18.6668 20.6667C20.6215 20.6667 22.0002 20.1907 22.0002 19.7133C22.0002 18.7613 20.6935 17.808 18.6668 17.808Z" fill="#333333"/>
</svg>
