<svg width="85" height="85" viewBox="0 0 85 85" fill="none" xmlns="http://www.w3.org/2000/svg">
<circle cx="2.5" cy="2.5" r="2.5" fill="#6C63FF" fill-opacity="0.5"/>
<circle cx="22.5" cy="2.5" r="2.5" fill="#6C63FF" fill-opacity="0.5"/>
<circle cx="42.5" cy="2.5" r="2.5" fill="#6C63FF" fill-opacity="0.25"/>
<circle cx="62.5" cy="2.5" r="2.5" fill="#6C63FF" fill-opacity="0.5"/>
<circle cx="82.5" cy="2.5" r="2.5" fill="#6C63FF"/>
<circle cx="82.5" cy="22.5" r="2.5" fill="#6C63FF" fill-opacity="0.8"/>
<circle cx="62.5" cy="22.5" r="2.5" fill="#6C63FF"/>
<circle cx="42.5" cy="22.5" r="2.5" fill="#6C63FF" fill-opacity="0.25"/>
<circle cx="22.5" cy="22.5" r="2.5" fill="#6C63FF" fill-opacity="0.5"/>
<circle cx="2.5" cy="22.5" r="2.5" fill="#6C63FF" fill-opacity="0.25"/>
<circle cx="2.5" cy="42.5" r="2.5" fill="#6C63FF" fill-opacity="0.25"/>
<circle cx="22.5" cy="42.5" r="2.5" fill="#D9D9D9" fill-opacity="0.5"/>
<circle cx="42.5" cy="42.5" r="2.5" fill="#6C63FF"/>
<circle cx="62.5" cy="42.5" r="2.5" fill="#D9D9D9" fill-opacity="0.5"/>
<circle cx="82.5" cy="42.5" r="2.5" fill="#6C63FF" fill-opacity="0.8"/>
<circle cx="82.5" cy="62.5" r="2.5" fill="#6C63FF" fill-opacity="0.8"/>
<circle cx="62.5" cy="62.5" r="2.5" fill="#6C63FF" fill-opacity="0.5"/>
<circle cx="42.5" cy="62.5" r="2.5" fill="#6C63FF" fill-opacity="0.25"/>
<circle cx="22.5" cy="62.5" r="2.5" fill="#6C63FF"/>
<circle cx="2.5" cy="62.5" r="2.5" fill="#6C63FF" fill-opacity="0.25"/>
<circle cx="82.5" cy="82.5" r="2.5" fill="#6C63FF" fill-opacity="0.5"/>
<circle cx="62.5" cy="82.5" r="2.5" fill="#6C63FF" fill-opacity="0.25"/>
<circle cx="42.5" cy="82.5" r="2.5" fill="#6C63FF" fill-opacity="0.25"/>
<circle cx="22.5" cy="82.5" r="2.5" fill="#6C63FF" fill-opacity="0.25"/>
<circle cx="2.5" cy="82.5" r="2.5" fill="#6C63FF"/>
</svg>
