<svg width="50" height="44" viewBox="0 0 50 44" fill="none" xmlns="http://www.w3.org/2000/svg">
<path d="M30.5176 26.5439C31.6243 27.0973 32.6253 27.7891 33.5205 28.6191C34.4157 29.4492 35.1725 30.4095 35.791 31.5H31.958C31.0791 30.5072 30.0374 29.7422 28.833 29.2051C27.6286 28.668 26.3509 28.3913 25 28.375C23.6979 28.375 22.4854 28.6191 21.3623 29.1074C20.2393 29.5957 19.2464 30.263 18.3838 31.1094C17.5212 31.9557 16.8457 32.9567 16.3574 34.1123C15.8691 35.2679 15.625 36.4805 15.625 37.75H12.5C12.5 36.5618 12.6628 35.4144 12.9883 34.3076C13.3138 33.2008 13.7777 32.151 14.3799 31.1582C14.9821 30.1654 15.7227 29.2865 16.6016 28.5215C17.4805 27.7565 18.4408 27.0973 19.4824 26.5439C18.2617 25.665 17.3177 24.5664 16.6504 23.248C15.9831 21.9297 15.6413 20.5137 15.625 19C15.625 18.1374 15.4622 17.3317 15.1367 16.583C14.8112 15.8343 14.3636 15.167 13.7939 14.5811C13.2243 13.9951 12.5651 13.5475 11.8164 13.2383C11.0677 12.929 10.2539 12.7663 9.375 12.75C8.51237 12.75 7.70671 12.9128 6.95801 13.2383C6.20931 13.5638 5.54199 14.0114 4.95605 14.5811C4.37012 15.1507 3.92253 15.8099 3.61328 16.5586C3.30404 17.3073 3.14128 18.1211 3.125 19H0C0 18.1536 0.113932 17.3236 0.341797 16.5098C0.569661 15.696 0.887044 14.9391 1.29395 14.2393C1.70085 13.5394 2.21354 12.8883 2.83203 12.2861C3.45052 11.6839 4.12598 11.1875 4.8584 10.7969C4.30501 10.2272 3.88184 9.56803 3.58887 8.81934C3.2959 8.07064 3.14128 7.29753 3.125 6.5C3.125 5.63737 3.28776 4.83171 3.61328 4.08301C3.9388 3.33431 4.38639 2.66699 4.95605 2.08105C5.52572 1.49512 6.1849 1.04753 6.93359 0.738281C7.68229 0.429036 8.49609 0.266276 9.375 0.25C10.2376 0.25 11.0433 0.41276 11.792 0.738281C12.5407 1.0638 13.208 1.51139 13.7939 2.08105C14.3799 2.65072 14.8275 3.3099 15.1367 4.05859C15.446 4.80729 15.6087 5.62109 15.625 6.5C15.625 7.29753 15.4785 8.07064 15.1855 8.81934C14.8926 9.56803 14.4613 10.2272 13.8916 10.7969C14.5752 11.1712 15.1855 11.6188 15.7227 12.1396C16.2598 12.6605 16.748 13.2301 17.1875 13.8486C17.627 13.1976 18.1315 12.6117 18.7012 12.0908C19.2708 11.57 19.8893 11.1305 20.5566 10.7725C21.224 10.4144 21.932 10.1296 22.6807 9.91797C23.4294 9.70638 24.2025 9.60872 25 9.625C25.7812 9.625 26.5462 9.72266 27.2949 9.91797C28.0436 10.1133 28.7516 10.39 29.4189 10.748C30.0863 11.1061 30.7129 11.5537 31.2988 12.0908C31.8848 12.6279 32.3893 13.2139 32.8125 13.8486C33.2357 13.2301 33.7158 12.6605 34.2529 12.1396C34.79 11.6188 35.4085 11.1712 36.1084 10.7969C35.555 10.2272 35.1318 9.56803 34.8389 8.81934C34.5459 8.07064 34.3913 7.29753 34.375 6.5C34.375 5.63737 34.5378 4.83171 34.8633 4.08301C35.1888 3.33431 35.6364 2.66699 36.2061 2.08105C36.7757 1.49512 37.4349 1.04753 38.1836 0.738281C38.9323 0.429036 39.7461 0.266276 40.625 0.25C41.4876 0.25 42.2933 0.41276 43.042 0.738281C43.7907 1.0638 44.458 1.51139 45.0439 2.08105C45.6299 2.65072 46.0775 3.3099 46.3867 4.05859C46.696 4.80729 46.8587 5.62109 46.875 6.5C46.875 7.29753 46.7285 8.07064 46.4355 8.81934C46.1426 9.56803 45.7113 10.2272 45.1416 10.7969C45.8903 11.2038 46.5658 11.7002 47.168 12.2861C47.7702 12.8721 48.2747 13.515 48.6816 14.2148C49.0885 14.9147 49.4141 15.6797 49.6582 16.5098C49.9023 17.3398 50.0163 18.1699 50 19H46.875C46.875 18.1374 46.7122 17.3317 46.3867 16.583C46.0612 15.8343 45.6136 15.167 45.0439 14.5811C44.4743 13.9951 43.8151 13.5475 43.0664 13.2383C42.3177 12.929 41.5039 12.7663 40.625 12.75C39.7624 12.75 38.9567 12.9128 38.208 13.2383C37.4593 13.5638 36.792 14.0114 36.2061 14.5811C35.6201 15.1507 35.1725 15.8099 34.8633 16.5586C34.554 17.3073 34.3913 18.1211 34.375 19C34.375 20.4974 34.0413 21.9053 33.374 23.2236C32.7067 24.542 31.7546 25.6488 30.5176 26.5439ZM40.625 3.375C40.1855 3.375 39.7786 3.45638 39.4043 3.61914C39.0299 3.7819 38.7044 4.00163 38.4277 4.27832C38.151 4.55501 37.9232 4.88867 37.7441 5.2793C37.5651 5.66992 37.4837 6.07682 37.5 6.5C37.5 6.93945 37.5814 7.34635 37.7441 7.7207C37.9069 8.09505 38.1266 8.42057 38.4033 8.69727C38.68 8.97396 39.0137 9.20182 39.4043 9.38086C39.7949 9.5599 40.2018 9.64128 40.625 9.625C41.0645 9.625 41.4714 9.54362 41.8457 9.38086C42.2201 9.2181 42.5456 8.99837 42.8223 8.72168C43.099 8.44499 43.3268 8.11133 43.5059 7.7207C43.6849 7.33008 43.7663 6.92318 43.75 6.5C43.75 6.06055 43.6686 5.65365 43.5059 5.2793C43.3431 4.90495 43.1234 4.57943 42.8467 4.30273C42.57 4.02604 42.2363 3.79818 41.8457 3.61914C41.4551 3.4401 41.0482 3.35872 40.625 3.375ZM9.375 9.625C9.81445 9.625 10.2214 9.54362 10.5957 9.38086C10.9701 9.2181 11.2956 8.99837 11.5723 8.72168C11.849 8.44499 12.0768 8.11133 12.2559 7.7207C12.4349 7.33008 12.5163 6.92318 12.5 6.5C12.5 6.06055 12.4186 5.65365 12.2559 5.2793C12.0931 4.90495 11.8734 4.57943 11.5967 4.30273C11.32 4.02604 10.9863 3.79818 10.5957 3.61914C10.2051 3.4401 9.79818 3.35872 9.375 3.375C8.93555 3.375 8.52865 3.45638 8.1543 3.61914C7.77995 3.7819 7.45443 4.00163 7.17773 4.27832C6.90104 4.55501 6.67318 4.88867 6.49414 5.2793C6.3151 5.66992 6.23372 6.07682 6.25 6.5C6.25 6.93945 6.33138 7.34635 6.49414 7.7207C6.6569 8.09505 6.87663 8.42057 7.15332 8.69727C7.43001 8.97396 7.76367 9.20182 8.1543 9.38086C8.54492 9.5599 8.95182 9.64128 9.375 9.625ZM25 25.25C25.8626 25.25 26.6683 25.0872 27.417 24.7617C28.1657 24.4362 28.833 23.9886 29.4189 23.4189C30.0049 22.8493 30.4525 22.1901 30.7617 21.4414C31.071 20.6927 31.2337 19.8789 31.25 19C31.25 18.1374 31.0872 17.3317 30.7617 16.583C30.4362 15.8343 29.9886 15.167 29.4189 14.5811C28.8493 13.9951 28.1901 13.5475 27.4414 13.2383C26.6927 12.929 25.8789 12.7663 25 12.75C24.1374 12.75 23.3317 12.9128 22.583 13.2383C21.8343 13.5638 21.167 14.0114 20.5811 14.5811C19.9951 15.1507 19.5475 15.8099 19.2383 16.5586C18.929 17.3073 18.7663 18.1211 18.75 19C18.75 19.8626 18.9128 20.6683 19.2383 21.417C19.5638 22.1657 20.0114 22.833 20.5811 23.4189C21.1507 24.0049 21.8099 24.4525 22.5586 24.7617C23.3073 25.071 24.1211 25.2337 25 25.25ZM43.75 34.625H50V37.75H43.75V44H40.625V37.75H34.375V34.625H40.625V28.375H43.75V34.625Z" fill="url(#paint0_linear_507_235)"/>
<defs>
<linearGradient id="paint0_linear_507_235" x1="25.0008" y1="0.25" x2="25.0008" y2="44" gradientUnits="userSpaceOnUse">
<stop stop-color="#6C63FF" stop-opacity="0.8"/>
<stop offset="1" stop-color="#4CAF50"/>
</linearGradient>
</defs>
</svg>
