<svg width="140" height="45" viewBox="0 0 140 45" fill="none" xmlns="http://www.w3.org/2000/svg">
<path d="M3.232 37V16.904H10.752C12.224 16.904 13.4453 17.1493 14.416 17.64C15.3867 18.12 16.112 18.76 16.592 19.56C17.072 20.3493 17.312 21.2133 17.312 22.152C17.312 23.304 16.992 24.3067 16.352 25.16C15.7227 26.0027 14.7733 26.5787 13.504 26.888C14.3253 27.016 15.0453 27.3093 15.664 27.768C16.2933 28.216 16.784 28.7707 17.136 29.432C17.488 30.0827 17.664 30.7813 17.664 31.528C17.664 32.2107 17.5467 32.8773 17.312 33.528C17.088 34.1787 16.7093 34.7653 16.176 35.288C15.6427 35.8107 14.9333 36.2267 14.048 36.536C13.1627 36.8453 12.064 37 10.752 37H3.232ZM5.728 34.824H10.72C12.2453 34.824 13.3387 34.504 14 33.864C14.672 33.224 15.008 32.4027 15.008 31.4C15.008 30.3867 14.6453 29.576 13.92 28.968C13.1947 28.3493 12.128 28.04 10.72 28.04H5.728V34.824ZM5.728 19.048V25.896H10.656C11.904 25.896 12.896 25.592 13.632 24.984C14.3787 24.3653 14.752 23.496 14.752 22.376C14.752 21.3307 14.3893 20.5147 13.664 19.928C12.9493 19.3413 11.9573 19.048 10.688 19.048H5.728ZM28.419 37.384C27.0963 37.384 25.9123 37.048 24.867 36.376C23.8323 35.6933 23.011 34.7493 22.403 33.544C21.8057 32.3387 21.507 30.952 21.507 29.384C21.507 27.7093 21.8057 26.2693 22.403 25.064C23.0003 23.8587 23.8163 22.936 24.851 22.296C25.8963 21.6453 27.0857 21.32 28.419 21.32C29.5817 21.32 30.5737 21.5547 31.395 22.024C32.2163 22.4933 32.8777 23.128 33.379 23.928C33.8803 24.728 34.227 25.6347 34.419 26.648C34.6217 27.6507 34.6803 28.6907 34.595 29.768H23.523V28.232H32.947L32.211 28.712C32.243 28.0827 32.2057 27.4533 32.099 26.824C32.003 26.1947 31.8163 25.6187 31.539 25.096C31.2617 24.5627 30.8723 24.136 30.371 23.816C29.8697 23.496 29.2297 23.336 28.451 23.336C27.4697 23.336 26.6483 23.5867 25.987 24.088C25.3257 24.5893 24.8297 25.2507 24.499 26.072C24.1683 26.8827 24.003 27.7627 24.003 28.712V29.736C24.003 30.8027 24.163 31.7573 24.483 32.6C24.8137 33.4427 25.3043 34.1093 25.955 34.6C26.6057 35.0907 27.427 35.336 28.419 35.336C29.411 35.336 30.227 35.096 30.867 34.616C31.507 34.136 31.8963 33.4267 32.035 32.488H34.627C34.467 33.5013 34.1043 34.376 33.539 35.112C32.9737 35.8373 32.2537 36.3973 31.379 36.792C30.5043 37.1867 29.5177 37.384 28.419 37.384ZM44.8565 37.384C43.5338 37.384 42.3498 37.048 41.3045 36.376C40.2698 35.6933 39.4485 34.7493 38.8405 33.544C38.2432 32.3387 37.9445 30.952 37.9445 29.384C37.9445 27.7093 38.2432 26.2693 38.8405 25.064C39.4378 23.8587 40.2538 22.936 41.2885 22.296C42.3338 21.6453 43.5232 21.32 44.8565 21.32C46.0192 21.32 47.0112 21.5547 47.8325 22.024C48.6538 22.4933 49.3152 23.128 49.8165 23.928C50.3178 24.728 50.6645 25.6347 50.8565 26.648C51.0592 27.6507 51.1178 28.6907 51.0325 29.768H39.9605V28.232H49.3845L48.6485 28.712C48.6805 28.0827 48.6432 27.4533 48.5365 26.824C48.4405 26.1947 48.2538 25.6187 47.9765 25.096C47.6992 24.5627 47.3098 24.136 46.8085 23.816C46.3072 23.496 45.6672 23.336 44.8885 23.336C43.9072 23.336 43.0858 23.5867 42.4245 24.088C41.7632 24.5893 41.2672 25.2507 40.9365 26.072C40.6058 26.8827 40.4405 27.7627 40.4405 28.712V29.736C40.4405 30.8027 40.6005 31.7573 40.9205 32.6C41.2512 33.4427 41.7418 34.1093 42.3925 34.6C43.0432 35.0907 43.8645 35.336 44.8565 35.336C45.8485 35.336 46.6645 35.096 47.3045 34.616C47.9445 34.136 48.3338 33.4267 48.4725 32.488H51.0645C50.9045 33.5013 50.5418 34.376 49.9765 35.112C49.4112 35.8373 48.6912 36.3973 47.8165 36.792C46.9418 37.1867 45.9552 37.384 44.8565 37.384ZM62.926 37.384C61.806 37.384 60.83 37.128 59.998 36.616C59.1767 36.104 58.542 35.3573 58.094 34.376C57.646 33.384 57.422 32.1787 57.422 30.76H58.478C58.478 31.7093 58.6753 32.5093 59.07 33.16C59.4647 33.8107 59.9767 34.3067 60.606 34.648C61.246 34.9787 61.9233 35.144 62.638 35.144C63.406 35.144 64.142 34.9253 64.846 34.488C65.55 34.04 66.126 33.384 66.574 32.52C67.022 31.656 67.246 30.5893 67.246 29.32C67.246 28.104 67.038 27.064 66.622 26.2C66.2167 25.336 65.6673 24.6747 64.974 24.216C64.2807 23.7573 63.5127 23.528 62.67 23.528C61.9447 23.528 61.262 23.704 60.622 24.056C59.982 24.408 59.4647 24.9253 59.07 25.608C58.6753 26.28 58.478 27.112 58.478 28.104H57.422C57.422 26.6213 57.6673 25.3787 58.158 24.376C58.6487 23.3627 59.3153 22.6 60.158 22.088C61.0007 21.576 61.9447 21.32 62.99 21.32C64.1847 21.32 65.2993 21.64 66.334 22.28C67.3687 22.92 68.206 23.8373 68.846 25.032C69.486 26.2267 69.806 27.656 69.806 29.32C69.806 31.0053 69.4807 32.4507 68.83 33.656C68.19 34.8613 67.3473 35.784 66.302 36.424C65.2567 37.064 64.1313 37.384 62.926 37.384ZM55.982 44.52V21.704H58.062L58.478 25.288V44.52H55.982ZM72.6848 28.776V26.6H81.3888V28.776H72.6848ZM134.675 37V28.008C134.675 26.5467 134.323 25.4373 133.619 24.68C132.925 23.912 131.976 23.528 130.771 23.528C129.853 23.528 129.059 23.7787 128.387 24.28C127.715 24.7813 127.197 25.5013 126.835 26.44C126.472 27.368 126.291 28.4773 126.291 29.768H125.331C125.331 27.9867 125.565 26.4667 126.035 25.208C126.504 23.9493 127.187 22.9893 128.083 22.328C128.989 21.656 130.088 21.32 131.379 21.32C132.584 21.32 133.613 21.592 134.467 22.136C135.331 22.6693 135.992 23.4373 136.451 24.44C136.909 25.4427 137.139 26.632 137.139 28.008V37H134.675ZM123.795 37V21.704H125.939L126.291 25.224V37H123.795Z" fill="#6C63FF"/>
<path d="M102.75 15H105.25V37.5H102.75V15ZM98.1625 22.775C97.2439 21.9542 96.5089 20.9487 96.0057 19.8243C95.5024 18.6999 95.2423 17.4819 95.2423 16.25C95.2423 15.0181 95.5024 13.8001 96.0057 12.6757C96.5089 11.5513 97.2439 10.5458 98.1625 9.72501L99.8375 11.5875C99.1807 12.1738 98.6553 12.8922 98.2955 13.6957C97.9357 14.4992 97.7497 15.3696 97.7497 16.25C97.7497 17.1304 97.9357 18.0008 98.2955 18.8043C98.6553 19.6078 99.1807 20.3262 99.8375 20.9125L98.1625 22.775ZM109.837 22.775L108.162 20.9125C108.819 20.3262 109.345 19.6078 109.705 18.8043C110.064 18.0008 110.25 17.1304 110.25 16.25C110.25 15.3696 110.064 14.4992 109.705 13.6957C109.345 12.8922 108.819 12.1738 108.162 11.5875L109.837 9.72501C110.756 10.5458 111.491 11.5513 111.994 12.6757C112.498 13.8001 112.758 15.0181 112.758 16.25C112.758 17.4819 112.498 18.6999 111.994 19.8243C111.491 20.9487 110.756 21.9542 109.837 22.775Z" fill="#009355"/>
<path d="M94.5 27.25C92.7923 25.9692 91.4063 24.3084 90.4516 22.3992C89.497 20.4899 89 18.3846 89 16.25C89 14.1154 89.497 12.0101 90.4516 10.1008C91.4063 8.19155 92.7923 6.53077 94.5 5.25L96 7.25C94.6028 8.2979 93.4688 9.65672 92.6877 11.2188C91.9066 12.781 91.5 14.5035 91.5 16.25C91.5 17.9965 91.9066 19.719 92.6877 21.2812C93.4688 22.8433 94.6028 24.2021 96 25.25L94.5 27.25ZM113.5 27.25L112 25.25C113.397 24.2021 114.531 22.8433 115.312 21.2812C116.093 19.719 116.5 17.9965 116.5 16.25C116.5 14.5035 116.093 12.781 115.312 11.2188C114.531 9.65672 113.397 8.2979 112 7.25L113.5 5.25C115.208 6.53077 116.594 8.19155 117.548 10.1008C118.503 12.0101 119 14.1154 119 16.25C119 18.3846 118.503 20.4899 117.548 22.3992C116.594 24.3084 115.208 25.9692 113.5 27.25Z" fill="#009355"/>
</svg>
