<svg width="32" height="32" viewBox="0 0 32 32" fill="none" xmlns="http://www.w3.org/2000/svg">
<path d="M21.3333 18C21.9111 18 22.3889 17.8111 22.7667 17.4333C23.1444 17.0556 23.3333 16.5778 23.3333 16C23.3333 15.4222 23.1444 14.9444 22.7667 14.5667C22.3889 14.1889 21.9111 14 21.3333 14C20.7556 14 20.2778 14.1889 19.9 14.5667C19.5222 14.9444 19.3333 15.4222 19.3333 16C19.3333 16.5778 19.5222 17.0556 19.9 17.4333C20.2778 17.8111 20.7556 18 21.3333 18ZM6.66667 25.3333V6.66667V25.3333ZM6.66667 28C5.93333 28 5.30533 27.7391 4.78267 27.2173C4.26089 26.6947 4 26.0667 4 25.3333V6.66667C4 5.93333 4.26089 5.30533 4.78267 4.78267C5.30533 4.26089 5.93333 4 6.66667 4H25.3333C26.0667 4 26.6947 4.26089 27.2173 4.78267C27.7391 5.30533 28 5.93333 28 6.66667V10H25.3333V6.66667H6.66667V25.3333H25.3333V22H28V25.3333C28 26.0667 27.7391 26.6947 27.2173 27.2173C26.6947 27.7391 26.0667 28 25.3333 28H6.66667ZM17.3333 22.6667C16.6 22.6667 15.9724 22.4058 15.4507 21.884C14.928 21.3613 14.6667 20.7333 14.6667 20V12C14.6667 11.2667 14.928 10.6387 15.4507 10.116C15.9724 9.59422 16.6 9.33333 17.3333 9.33333H26.6667C27.4 9.33333 28.028 9.59422 28.5507 10.116C29.0724 10.6387 29.3333 11.2667 29.3333 12V20C29.3333 20.7333 29.0724 21.3613 28.5507 21.884C28.028 22.4058 27.4 22.6667 26.6667 22.6667H17.3333ZM26.6667 20V12H17.3333V20H26.6667Z" fill="#333333"/>
</svg>
