<svg width="65" height="64" viewBox="0 0 65 64" fill="none" xmlns="http://www.w3.org/2000/svg">
<path d="M26.1521 0.714356C21.6184 0.714006 17.1634 1.86521 13.2291 4.05374C9.29488 6.24227 6.01817 9.39204 3.72412 13.1905C1.43007 16.989 0.198426 21.3041 0.151406 25.7078C0.104387 30.1114 1.24362 34.4504 3.45607 38.2943L0.272074 46.3837C0.00738972 47.0562 -0.0597512 47.7869 0.0781423 48.4942C0.216036 49.2016 0.553541 49.8578 1.053 50.3897C1.55247 50.9216 2.19424 51.3083 2.90674 51.5065C3.61924 51.7048 4.37443 51.7069 5.08807 51.5125L15.0361 48.8044C18.5599 50.4217 22.4129 51.2488 26.3102 51.2245C30.2074 51.2002 34.0492 50.3252 37.5514 48.6641C41.0535 47.0031 44.1265 44.5985 46.5429 41.6283C48.9593 38.658 50.6573 35.1981 51.5114 31.5044C52.3655 27.8107 52.3538 23.9777 51.4772 20.289C50.6006 16.6003 48.8814 13.1502 46.447 10.1939C44.0125 7.23764 40.9249 4.8508 37.4127 3.20994C33.9005 1.56908 30.0534 0.716194 26.1561 0.714356H26.1521ZM4.15207 25.9697C4.15385 21.3127 5.72169 16.7838 8.61704 13.072C11.5124 9.36014 15.5768 6.66863 20.1917 5.40694C24.8067 4.14526 29.7197 4.38246 34.1831 6.08247C38.6465 7.78248 42.4161 10.8522 44.9182 14.8247C47.4203 18.7971 48.5181 23.4547 48.0444 28.0889C47.5708 32.7231 45.5516 37.0801 42.2942 40.4971C39.0368 43.9141 34.7195 46.2039 29.999 47.0182C25.2786 47.8326 20.4136 47.1268 16.1441 45.0083L15.4481 44.6586L4.00807 47.7708L7.88407 37.9174L7.37207 37.1014C5.26065 33.7511 4.1461 29.898 4.15207 25.9697V25.9697ZM38.0041 62.8813C34.2614 62.8853 30.5621 62.1026 27.1602 60.5869C23.7584 59.0711 20.7344 56.8583 18.2961 54.1002C20.5933 54.7047 22.9568 55.04 25.3361 55.0988C29.0402 57.6401 33.4652 59.0018 38.0001 58.9959C41.6081 58.9959 45.0081 58.1527 48.0081 56.6646L48.7041 56.3149L60.1441 59.4272L56.2681 49.5737L56.7801 48.7577C58.8201 45.5173 60.0001 41.7096 60.0001 37.626C60.0063 33.3114 58.6614 29.097 56.1441 25.5423C56.1112 23.2308 55.7956 20.9314 55.2041 18.6923C57.9716 21.0594 60.1877 23.9726 61.7045 27.2375C63.2213 30.5025 64.0039 34.044 64.0001 37.626C64.0001 42.0981 62.8001 46.3022 60.7001 49.9506L63.8801 58.04C64.1448 58.7125 64.2119 59.4432 64.074 60.1505C63.9361 60.8579 63.5986 61.5141 63.0991 62.046C62.5997 62.5779 61.9579 62.9646 61.2454 63.1628C60.5329 63.3611 59.7777 63.3632 59.0641 63.1688L49.1161 60.4607C45.7441 62.0149 41.9721 62.8813 37.9961 62.8813H38.0041Z" fill="url(#paint0_linear_980_270)"/>
<defs>
<linearGradient id="paint0_linear_980_270" x1="32.0761" y1="0.714355" x2="32.0761" y2="63.3131" gradientUnits="userSpaceOnUse">
<stop stop-color="#6C63FF" stop-opacity="0.8"/>
<stop offset="1" stop-color="#4CAF50" stop-opacity="0.5"/>
</linearGradient>
</defs>
</svg>
