<svg width="99" height="82" viewBox="0 0 99 82" fill="none" xmlns="http://www.w3.org/2000/svg">
<path d="M98.7749 4.28751C99.0023 3.71961 99.0579 3.09748 98.935 2.49826C98.8121 1.89903 98.516 1.34905 98.0834 0.916513C97.6509 0.483973 97.1009 0.187888 96.5017 0.0649667C95.9025 -0.0579549 95.2803 -0.00230801 94.7124 0.225009L3.79369 36.5938C2.993 36.9143 2.29626 37.4495 1.78014 38.1404C1.26402 38.8314 0.94854 39.6514 0.868418 40.5101C0.788296 41.3688 0.94664 42.233 1.32602 43.0075C1.7054 43.7821 2.29111 44.4369 3.01869 44.9L34.2374 64.7625L43.8062 79.8C44.2581 80.4823 44.9597 80.9602 45.7601 81.1308C46.5606 81.3014 47.396 81.1511 48.0869 80.7124C48.7777 80.2736 49.2689 79.5814 49.4548 78.7843C49.6408 77.9873 49.5066 77.1492 49.0812 76.45L40.4812 62.9375L87.3187 16.1L75.4749 45.7125C75.3122 46.0952 75.2275 46.5065 75.2258 46.9224C75.2241 47.3382 75.3054 47.7502 75.4649 48.1342C75.6245 48.5183 75.859 48.8666 76.1549 49.1588C76.4508 49.451 76.802 49.6812 77.188 49.8359C77.574 49.9907 77.987 50.0668 78.4028 50.0599C78.8186 50.0529 79.2288 49.9631 79.6094 49.7956C79.9901 49.6281 80.3334 49.3863 80.6194 49.0845C80.9054 48.7826 81.1283 48.4266 81.2749 48.0375L98.7749 4.28751ZM82.8999 11.6813L36.0624 58.5188L8.94369 41.2625L82.8999 11.6813Z" fill="url(#paint0_linear_495_165)" fill-opacity="0.5"/>
<defs>
<linearGradient id="paint0_linear_495_165" x1="49.9234" y1="0.0012207" x2="49.9234" y2="81.1994" gradientUnits="userSpaceOnUse">
<stop stop-color="#6C63FF"/>
<stop offset="1" stop-color="#4CAF50"/>
</linearGradient>
</defs>
</svg>
