<svg width="32" height="32" viewBox="0 0 32 32" fill="none" xmlns="http://www.w3.org/2000/svg">
<path d="M12.5372 21.368L13.3905 21.2213C13.5558 21.192 13.7532 21.1493 13.9812 21.0907C16.7998 20.384 18.6665 18.2773 18.6665 16C18.6665 13.1533 15.7652 10.6667 11.9998 10.6667C8.2345 10.6667 5.33317 13.1533 5.33317 16C5.33317 17.624 6.26917 19.1707 7.90784 20.2L7.95584 20.2267L9.33317 20.9867V24.6707L12.5372 21.368ZM13.8465 23.848L8.95717 28.888C8.77239 29.0786 8.53493 29.2097 8.27518 29.2645C8.01544 29.3194 7.74524 29.2954 7.4992 29.1957C7.25315 29.096 7.04247 28.9252 6.89412 28.705C6.74577 28.4849 6.66652 28.2255 6.6665 27.96V22.56C6.60694 22.5278 6.54825 22.494 6.4905 22.4587C4.17184 21.0027 2.6665 18.652 2.6665 16C2.6665 11.5813 6.84517 8.00001 11.9998 8.00001C17.1545 8.00001 21.3332 11.5813 21.3332 16C21.3332 19.6347 18.5052 22.704 14.6318 23.6773C14.3722 23.7439 14.1103 23.8008 13.8465 23.848ZM11.9145 6.66667C13.5278 4.27601 16.5465 2.66667 19.9998 2.66667C25.1545 2.66667 29.3332 6.24801 29.3332 10.6667C29.3332 13.3187 27.8265 15.6693 25.5092 17.1253C25.4514 17.1607 25.3927 17.1945 25.3332 17.2267V22.6267C25.3332 22.8921 25.2539 23.1516 25.1056 23.3717C24.9572 23.5919 24.7465 23.7627 24.5005 23.8624C24.2544 23.9621 23.9842 23.986 23.7245 23.9312C23.4647 23.8764 23.2273 23.7453 23.0425 23.5547L20.7292 21.1707L22.1198 18.7733L22.6665 19.3373V15.6533L24.0438 14.8933L24.0918 14.8667C25.7318 13.8373 26.6665 12.2907 26.6665 10.6667C26.6665 7.82001 23.7652 5.33334 19.9998 5.33334C18.2932 5.33334 16.7652 5.84401 15.6038 6.66667H11.9145Z" fill="#333333"/>
</svg>
