<svg width="32" height="32" viewBox="0 0 32 32" fill="none" xmlns="http://www.w3.org/2000/svg">
<g clip-path="url(#clip0_73_845)">
<path d="M16.0004 30.4711C16.5603 30.4582 17.0977 30.2477 17.5174 29.8768C17.9371 29.5059 18.2121 28.9986 18.2937 28.4445H13.6182C13.7021 29.0136 13.99 29.5329 14.4282 29.9057C14.8664 30.2785 15.4251 30.4794 16.0004 30.4711V30.4711Z" fill="#D9D9D9"/>
<path d="M28.8976 24.7378C28.0404 23.9737 27.29 23.0976 26.6665 22.1333C25.9858 20.8023 25.5778 19.3487 25.4665 17.8578V13.4667C25.4629 12.9333 25.4153 12.4011 25.3243 11.8756C24.6246 11.7357 23.9522 11.4836 23.3332 11.1289C23.5691 11.8888 23.689 12.6799 23.6887 13.4756V17.8667C23.7977 19.6854 24.2979 21.4591 25.1554 23.0667C25.7691 24.0391 26.4972 24.9344 27.3243 25.7333H4.55983C5.38686 24.9344 6.11503 24.0391 6.72872 23.0667C7.58615 21.4591 8.08643 19.6854 8.19538 17.8667V13.4667C8.1907 12.438 8.38899 11.4184 8.77889 10.4664C9.16878 9.51445 9.74263 8.64872 10.4676 7.91882C11.1925 7.18893 12.0543 6.60919 13.0036 6.21282C13.9529 5.81645 14.9711 5.61123 15.9998 5.6089C17.5054 5.61011 18.9772 6.05535 20.2309 6.8889C20.0927 6.38133 20.0151 5.85917 19.9998 5.33334V4.77334C19.0717 4.31678 18.0746 4.01645 17.0487 3.88446V2.76446C17.0487 2.44973 16.9237 2.1479 16.7011 1.92536C16.4786 1.70281 16.1768 1.57779 15.862 1.57779C15.5473 1.57779 15.2455 1.70281 15.0229 1.92536C14.8004 2.1479 14.6754 2.44973 14.6754 2.76446V3.9289C12.3782 4.25295 10.2759 5.39712 8.75647 7.15017C7.23704 8.90323 6.40314 11.1468 6.40872 13.4667V17.8578C6.29739 19.3487 5.88941 20.8023 5.20872 22.1333C4.59617 23.0954 3.85778 23.9713 3.01316 24.7378C2.91834 24.8211 2.84235 24.9236 2.79024 25.0386C2.73813 25.1535 2.7111 25.2782 2.71094 25.4045V26.6133C2.71094 26.8491 2.80459 27.0752 2.97129 27.2419C3.13799 27.4086 3.36408 27.5022 3.59983 27.5022H28.3109C28.5467 27.5022 28.7728 27.4086 28.9395 27.2419C29.1062 27.0752 29.1998 26.8491 29.1998 26.6133V25.4045C29.1997 25.2782 29.1726 25.1535 29.1205 25.0386C29.0684 24.9236 28.9924 24.8211 28.8976 24.7378V24.7378Z" fill="#D9D9D9"/>
<path d="M26.6671 9.77777C29.1217 9.77777 31.1115 7.78793 31.1115 5.33333C31.1115 2.87873 29.1217 0.888885 26.6671 0.888885C24.2125 0.888885 22.2227 2.87873 22.2227 5.33333C22.2227 7.78793 24.2125 9.77777 26.6671 9.77777Z" fill="#FF3232"/>
</g>
<defs>
<clipPath id="clip0_73_845">
<rect width="32" height="32" fill="white"/>
</clipPath>
</defs>
</svg>
