<svg width="32" height="32" viewBox="0 0 32 32" fill="none" xmlns="http://www.w3.org/2000/svg">
<path d="M14.7204 23.04C10.1124 23.04 6.40039 19.328 6.40039 14.72C6.40039 10.112 10.1124 6.39999 14.7204 6.39999C19.3284 6.39999 23.0404 10.112 23.0404 14.72C23.0404 19.328 19.3284 23.04 14.7204 23.04ZM14.7204 7.67999C10.8164 7.67999 7.68039 10.816 7.68039 14.72C7.68039 18.624 10.8164 21.76 14.7204 21.76C18.6244 21.76 21.7604 18.624 21.7604 14.72C21.7604 10.816 18.6244 7.67999 14.7204 7.67999Z" fill="black" fill-opacity="0.5"/>
<path d="M20.9167 20.0109L26.6639 25.7581L25.7589 26.663L20.0117 20.9158L20.9167 20.0109Z" fill="black" fill-opacity="0.5"/>
</svg>
