<svg width="32" height="32" viewBox="0 0 32 32" fill="none" xmlns="http://www.w3.org/2000/svg">
<path d="M22.2919 26.336L21.4386 19.504C21.3177 18.5363 20.8474 17.6461 20.1162 17.0008C19.385 16.3555 18.4432 15.9996 17.4679 16H14.5293C13.5545 16.0003 12.6134 16.3565 11.8827 17.0017C11.1521 17.6469 10.6822 18.5368 10.5613 19.504L9.70662 26.336C9.65971 26.7114 9.6932 27.0924 9.80485 27.4538C9.91651 27.8152 10.1038 28.1487 10.3542 28.4322C10.6047 28.7157 10.9126 28.9427 11.2575 29.098C11.6023 29.2534 11.9763 29.3336 12.3546 29.3333H19.6453C20.0234 29.3334 20.3973 29.2531 20.742 29.0976C21.0868 28.9422 21.3945 28.7152 21.6448 28.4317C21.8951 28.1483 22.0822 27.8148 22.1938 27.4535C22.3054 27.0922 22.3388 26.7112 22.2919 26.336V26.336Z" stroke="#333333" stroke-width="2.66667" stroke-linecap="round" stroke-linejoin="round"/>
<path d="M16 10.6667C18.2091 10.6667 20 8.8758 20 6.66666C20 4.45753 18.2091 2.66666 16 2.66666C13.7909 2.66666 12 4.45753 12 6.66666C12 8.8758 13.7909 10.6667 16 10.6667Z" stroke="#333333" stroke-width="2.66667"/>
<path d="M5.33366 14.6667C6.80642 14.6667 8.00033 13.4728 8.00033 12C8.00033 10.5272 6.80642 9.33333 5.33366 9.33333C3.8609 9.33333 2.66699 10.5272 2.66699 12C2.66699 13.4728 3.8609 14.6667 5.33366 14.6667Z" stroke="#333333" stroke-width="2.66667"/>
<path d="M26.6667 14.6667C28.1394 14.6667 29.3333 13.4728 29.3333 12C29.3333 10.5272 28.1394 9.33333 26.6667 9.33333C25.1939 9.33333 24 10.5272 24 12C24 13.4728 25.1939 14.6667 26.6667 14.6667Z" stroke="#333333" stroke-width="2.66667"/>
<path d="M5.33345 18.6667H4.92545C4.2942 18.6666 3.68339 18.8904 3.20168 19.2984C2.71998 19.7064 2.39862 20.272 2.29478 20.8947L1.85078 23.5613C1.78706 23.9434 1.80734 24.3347 1.91021 24.7082C2.01307 25.0816 2.19605 25.4281 2.44642 25.7237C2.69679 26.0192 3.00853 26.2567 3.35997 26.4195C3.71141 26.5824 4.09411 26.6667 4.48145 26.6667H9.33345M26.6668 18.6667H27.0748C27.706 18.6666 28.3168 18.8904 28.7985 19.2984C29.2802 19.7064 29.6016 20.272 29.7054 20.8947L30.1494 23.5613C30.2132 23.9434 30.1929 24.3347 30.09 24.7082C29.9872 25.0816 29.8042 25.4281 29.5538 25.7237C29.3034 26.0192 28.9917 26.2567 28.6403 26.4195C28.2888 26.5824 27.9061 26.6667 27.5188 26.6667H22.6668" stroke="#333333" stroke-width="2.66667" stroke-linecap="round" stroke-linejoin="round"/>
</svg>
