<svg width="70" height="51" viewBox="0 0 70 51" fill="none" xmlns="http://www.w3.org/2000/svg">
<path d="M12.5 12.3867C12.5 10.1634 13.4658 8.0312 15.1849 6.45909C16.9039 4.88698 19.2355 4.00379 21.6667 4.00379C24.0978 4.00379 26.4294 4.88698 28.1485 6.45909C29.8676 8.0312 30.8333 10.1634 30.8333 12.3867C30.8333 14.61 29.8676 16.7422 28.1485 18.3144C26.4294 19.8865 24.0978 20.7697 21.6667 20.7697C19.2355 20.7697 16.9039 19.8865 15.1849 18.3144C13.4658 16.7422 12.5 14.61 12.5 12.3867ZM21.6667 0.193359C18.1304 0.193359 14.7391 1.47801 12.2386 3.76471C9.73809 6.05141 8.33333 9.15284 8.33333 12.3867C8.33333 15.6206 9.73809 18.722 12.2386 21.0087C14.7391 23.2954 18.1304 24.5801 21.6667 24.5801C25.2029 24.5801 28.5943 23.2954 31.0948 21.0087C33.5952 18.722 35 15.6206 35 12.3867C35 9.15284 33.5952 6.05141 31.0948 3.76471C28.5943 1.47801 25.2029 0.193359 21.6667 0.193359ZM45.8333 15.4351C45.8333 14.0202 46.4479 12.6634 47.5419 11.6629C48.6358 10.6625 50.1196 10.1005 51.6667 10.1005C53.2138 10.1005 54.6975 10.6625 55.7915 11.6629C56.8854 12.6634 57.5 14.0202 57.5 15.4351C57.5 16.8499 56.8854 18.2068 55.7915 19.2072C54.6975 20.2076 53.2138 20.7697 51.6667 20.7697C50.1196 20.7697 48.6358 20.2076 47.5419 19.2072C46.4479 18.2068 45.8333 16.8499 45.8333 15.4351ZM51.6667 6.29004C49.0145 6.29004 46.471 7.25353 44.5956 8.96856C42.7202 10.6836 41.6667 13.0097 41.6667 15.4351C41.6667 17.8605 42.7202 20.1865 44.5956 21.9016C46.471 23.6166 49.0145 24.5801 51.6667 24.5801C54.3188 24.5801 56.8624 23.6166 58.7377 21.9016C60.6131 20.1865 61.6667 17.8605 61.6667 15.4351C61.6667 13.0097 60.6131 10.6836 58.7377 8.96856C56.8624 7.25353 54.3188 6.29004 51.6667 6.29004ZM51.6667 47.4426C48.04 47.4426 45.13 46.9061 42.8067 46.0374L43.1167 45.6716C43.94 44.6793 44.5717 43.6856 45.055 42.7436C46.755 43.2847 48.915 43.6322 51.665 43.6322C58.7917 43.6322 61.9533 41.2957 63.4367 39.3173C64.2814 38.1805 64.8106 36.8727 64.9783 35.5069C64.9879 35.4176 64.9946 35.3282 64.9983 35.2386V34.8682C64.9983 33.8166 64.065 32.963 62.915 32.963H46.4383C46.096 31.5544 45.3774 30.2452 44.3467 29.1526H62.9167C64.5743 29.1526 66.164 29.7548 67.3361 30.8267C68.5082 31.8986 69.1667 33.3524 69.1667 34.8682V35.3209L69.1617 35.452C69.155 35.5587 69.145 35.702 69.1283 35.8772C68.892 37.8827 68.1186 39.804 66.8767 41.4709C64.5017 44.6336 59.955 47.4426 51.6633 47.4426H51.6667ZM6.25 29.1526C4.5924 29.1526 3.00269 29.7548 1.83058 30.8267C0.65848 31.8986 0 33.3524 0 34.8682V36.8542L0.00666658 37.0021C0.0133332 37.124 0.0266666 37.2856 0.05 37.4868C0.0983333 37.8861 0.19 38.4348 0.37 39.0871C0.847648 40.8053 1.69779 42.4183 2.87 43.8304C5.79833 47.3603 11.3767 50.491 21.6667 50.491C31.9583 50.491 37.5367 47.3603 40.4617 43.8304C41.6346 42.418 42.4853 40.8045 42.9633 39.0856C43.1433 38.4348 43.235 37.8861 43.2833 37.4852C43.3085 37.2755 43.3252 37.0651 43.3333 36.8542V34.8682C43.3333 34.1176 43.1717 33.3744 42.8576 32.681C42.5435 31.9875 42.0831 31.3574 41.5028 30.8267C40.9224 30.2959 40.2334 29.8749 39.4751 29.5877C38.7168 29.3004 37.9041 29.1526 37.0833 29.1526H6.25ZM4.16833 36.81L4.16667 36.7613V34.8682C4.16667 33.8166 5.1 32.963 6.25 32.963H37.0833C38.2333 32.963 39.1667 33.8166 39.1667 34.8682V36.7613L39.165 36.81C39.1272 37.2626 39.0469 37.7113 38.925 38.1513C38.5839 39.375 37.9774 40.5236 37.1417 41.5289C35.1717 43.9066 30.9583 46.6806 21.6667 46.6806C12.375 46.6806 8.16167 43.9066 6.19167 41.5289C5.35608 40.524 4.74965 39.376 4.40833 38.1528C4.28639 37.7123 4.2061 37.2631 4.16833 36.81Z" fill="url(#paint0_linear_980_289)"/>
<defs>
<linearGradient id="paint0_linear_980_289" x1="34.5833" y1="0.193359" x2="34.5833" y2="50.491" gradientUnits="userSpaceOnUse">
<stop stop-color="#6C63FF" stop-opacity="0.8"/>
<stop offset="1" stop-color="#4CAF50" stop-opacity="0.5"/>
</linearGradient>
</defs>
</svg>
