<svg width="120" height="120" viewBox="0 0 120 120" fill="none" xmlns="http://www.w3.org/2000/svg">
<circle cx="60" cy="60" r="60" fill="url(#paint0_linear_1234_189)"/>
<path d="M78.262 44.4727H73.6819C72.6858 44.4727 71.7385 44.9512 71.1526 45.7715L55.801 67.0605L48.8479 57.4121C48.262 56.6016 47.3245 56.1133 46.3186 56.1133H41.7385C41.1038 56.1133 40.7327 56.8359 41.1038 57.3535L53.2717 74.2285C53.5592 74.6297 53.9381 74.9566 54.3771 75.1822C54.8162 75.4077 55.3026 75.5253 55.7962 75.5253C56.2897 75.5253 56.7762 75.4077 57.2152 75.1822C57.6542 74.9566 58.0331 74.6297 58.3206 74.2285L78.887 45.7129C79.2678 45.1953 78.8967 44.4727 78.262 44.4727Z" fill="url(#paint1_linear_1234_189)"/>
<path d="M60 16.25C35.8398 16.25 16.25 35.8398 16.25 60C16.25 84.1602 35.8398 103.75 60 103.75C84.1602 103.75 103.75 84.1602 103.75 60C103.75 35.8398 84.1602 16.25 60 16.25ZM60 96.3281C39.9414 96.3281 23.6719 80.0586 23.6719 60C23.6719 39.9414 39.9414 23.6719 60 23.6719C80.0586 23.6719 96.3281 39.9414 96.3281 60C96.3281 80.0586 80.0586 96.3281 60 96.3281Z" fill="url(#paint2_linear_1234_189)"/>
<defs>
<linearGradient id="paint0_linear_1234_189" x1="60" y1="0" x2="60" y2="120" gradientUnits="userSpaceOnUse">
<stop stop-color="#6C63FF" stop-opacity="0.1"/>
<stop offset="1" stop-color="#4CAF50" stop-opacity="0.1"/>
</linearGradient>
<linearGradient id="paint1_linear_1234_189" x1="59.9984" y1="44.4727" x2="59.9984" y2="75.5253" gradientUnits="userSpaceOnUse">
<stop stop-color="#4CAF50" stop-opacity="0.5"/>
<stop offset="1" stop-color="#6C63FF" stop-opacity="0.8"/>
</linearGradient>
<linearGradient id="paint2_linear_1234_189" x1="60" y1="16.25" x2="60" y2="103.75" gradientUnits="userSpaceOnUse">
<stop stop-color="#4CAF50" stop-opacity="0.5"/>
<stop offset="1" stop-color="#6C63FF" stop-opacity="0.25"/>
</linearGradient>
</defs>
</svg>
