<svg width="100" height="100" viewBox="0 0 100 100" fill="none" xmlns="http://www.w3.org/2000/svg">
<g clip-path="url(#clip0_501_180)">
<path d="M68.262 34.4727H63.6819C62.6858 34.4727 61.7385 34.9512 61.1526 35.7715L45.801 57.0605L38.8479 47.4121C38.262 46.6016 37.3245 46.1133 36.3186 46.1133H31.7385C31.1038 46.1133 30.7327 46.8359 31.1038 47.3535L43.2717 64.2285C43.5592 64.6297 43.9381 64.9566 44.3771 65.1822C44.8162 65.4077 45.3026 65.5253 45.7962 65.5253C46.2897 65.5253 46.7762 65.4077 47.2152 65.1822C47.6542 64.9566 48.0331 64.6297 48.3206 64.2285L68.887 35.7129C69.2678 35.1953 68.8967 34.4727 68.262 34.4727Z" fill="url(#paint0_linear_501_180)"/>
<path d="M50 6.25C25.8398 6.25 6.25 25.8398 6.25 50C6.25 74.1602 25.8398 93.75 50 93.75C74.1602 93.75 93.75 74.1602 93.75 50C93.75 25.8398 74.1602 6.25 50 6.25ZM50 86.3281C29.9414 86.3281 13.6719 70.0586 13.6719 50C13.6719 29.9414 29.9414 13.6719 50 13.6719C70.0586 13.6719 86.3281 29.9414 86.3281 50C86.3281 70.0586 70.0586 86.3281 50 86.3281Z" fill="url(#paint1_linear_501_180)"/>
</g>
<defs>
<linearGradient id="paint0_linear_501_180" x1="49.9984" y1="34.4727" x2="49.9984" y2="65.5253" gradientUnits="userSpaceOnUse">
<stop stop-color="#4CAF50" stop-opacity="0.5"/>
<stop offset="1" stop-color="#6C63FF" stop-opacity="0.8"/>
</linearGradient>
<linearGradient id="paint1_linear_501_180" x1="50" y1="6.25" x2="50" y2="93.75" gradientUnits="userSpaceOnUse">
<stop stop-color="#4CAF50" stop-opacity="0.5"/>
<stop offset="1" stop-color="#6C63FF" stop-opacity="0.25"/>
</linearGradient>
<clipPath id="clip0_501_180">
<rect width="100" height="100" fill="white"/>
</clipPath>
</defs>
</svg>
